<svg xmlns="http://www.w3.org/2000/svg" xmlns:xlink="http://www.w3.org/1999/xlink" width="975.276" height="519.017" viewBox="0 0 975.276 519.017"><defs><style>.a,.c{fill:#6c63ff;}.a,.b,.g{opacity:0.1;}.d{fill:#3f3d56;}.e{fill:#65617d;}.f{opacity:0.2;}.h{fill:#3a4151;}.i{fill:#d4dfec;}.j{fill:#fbbebe;}.k{fill:url(#a);}.l{fill:none;stroke:#6c63ff;stroke-miterlimit:10;stroke-width:2px;}</style><linearGradient id="a" x1="0.5" y1="1" x2="0.5" y2="-0.001" gradientUnits="objectBoundingBox"><stop offset="0" stop-color="gray" stop-opacity="0.251"/><stop offset="0.54" stop-color="gray" stop-opacity="0.122"/><stop offset="1" stop-color="gray" stop-opacity="0.102"/></linearGradient></defs><g transform="translate(-0.011 -0.035)"><path class="a" d="M979.878,583.346q-1.63,3.512-3.25,6.931-2.529,5.311-4.992,10.415c-.731,1.508-1.461,2.988-2.173,4.468-8.055,16.456-15.576,31.011-21.964,42.981a68.57,68.57,0,0,1-59.765,36.247L745.7,685.934h-1.5l-12.176.131-10.415.112-31.939.347h-1.293l-16.26.178h-.5L571.4,687.788l-89.456.937-10.406.112-64.626.7h-.075l-41.914.45h-.45l-132.531,1.433-39.647.431a82.485,82.485,0,0,1-24.98-3.578A80.914,80.914,0,0,1,130.7,665.094c-17.028-18.76-29.438-40.649-37.774-64.4q-1.808-5.142-3.372-10.415C60.7,492.729,95.881,366.876,159.2,282.655q3.981-5.283,8.092-10.3l.066-.075c19.472-23.9,41.3-43.871,64.561-58.07,41.211-25.2,86.871-32.3,131.782-11.146,38,17.908,73.477,26.328,107.87,28.614,3.475.225,6.95.393,10.406.5,78.891,2.482,152.827-25.944,239.652-44.293,3.456-.731,6.922-1.452,10.415-2.135,61.938-12.326,130.648-18.826,212.359-5.161a177.107,177.107,0,0,1,25.064,5.994q5.4,1.742,10.415,3.746c39,15.866,60.271,45.182,69.31,81.916q1.283,5.114,2.22,10.406C1067.432,371.006,1020.5,496.344,979.878,583.346Z" transform="translate(-79.34 -172.91)"/><g class="b" transform="translate(10.219 12.806)"><path class="c" d="M237.866,217V694.318l-39.647.431a82.489,82.489,0,0,1-24.98-3.578V275.07h.066C192.778,251.14,214.61,231.171,237.866,217Z" transform="translate(-95.51 -188.508)"/><path class="c" d="M1056.857,289.378H164.6q3.981-5.283,8.092-10.3V279h881.945Q1055.921,284.086,1056.857,289.378Z" transform="translate(-94.963 -192.438)"/><path class="c" d="M1040.115,191.254V591.189h-3.25q-2.529,5.311-4.992,10.415c-.731,1.508-1.461,2.988-2.173,4.468V187.47Q1035.1,189.212,1040.115,191.254Z" transform="translate(-149.797 -186.636)"/><path class="c" d="M775.505,186.58V686.967l-10.415.112V188.715C768.546,187.985,772.012,187.264,775.505,186.58Z" transform="translate(-133.024 -186.58)"/><path class="c" d="M508.516,236.116V692.791l-10.406.112V235.62C501.585,235.845,505.06,235.976,508.516,236.116Z" transform="translate(-116.102 -189.688)"/><path class="c" d="M977.318,618.52q-2.529,5.311-4.992,10.415H93.622q-1.808-5.142-3.372-10.415Z" transform="translate(-90.25 -213.958)"/></g><rect class="d" width="17.796" height="54.005" transform="translate(198.188 248.983)"/><rect class="d" width="17.796" height="57.134" transform="translate(677.108 246.173)"/><path class="e" d="M815.118,531.844V544.02l-142.291,1.311-1.517.028-54.08.5-1.293.019-16.438.141h-.487l-100.2.927-164.479,1.527h-.14l-41.82.393-.45.009-185.824,1.7V536.527L149.793,510.3l87.667-.731,1.873-.009.618-.009,1.873-.028,42.091-.347,1.883-.009.6-.009,1.873-.009,13.5-.112.356-.009,33.3-.281h.272l259.817-2.192,6.36-.047h.637l4.852-.047,35.264-.29,1.873-.028,1.733-.019h.9l10.968-.084,2.173-.028,2.913-.019,9.132-.084,14.489-.122,1.873-.019,3.259-.019h.609l69.975-.6Z" transform="translate(-6.724 -32.017)"/><path class="f" d="M815.118,531.844V544.02l-142.291,1.311-1.517.028-54.08.5-1.293.019-16.438.141h-.487l-100.2.927-164.479,1.527h-.14l-41.82.393-.45.009-185.824,1.7V536.527L149.793,510.3l87.667-.731,1.873-.009.618-.009,1.873-.028,42.091-.347,1.883-.009.6-.009,1.873-.009,13.5-.112.356-.009,33.3-.281h.272l259.817-2.192,6.36-.047h.637l4.852-.047,35.264-.29,1.873-.028,1.733-.019h.9l10.968-.084,2.173-.028,2.913-.019,9.132-.084,14.489-.122,1.873-.019,3.259-.019h.609l69.975-.6Z" transform="translate(-6.724 -32.017)"/><path class="d" d="M372.45,656.57v22.938a5.742,5.742,0,0,1-3.278,5.189,5.62,5.62,0,0,1-2.342.562l-32.688.693a5.619,5.619,0,0,1-2.529-.534,5.732,5.732,0,0,1-3.344-5.217V656.57Z" transform="translate(-95.118 -203.564)"/><path class="g" d="M372.45,656.57v22.938a5.742,5.742,0,0,1-3.278,5.189,5.62,5.62,0,0,1-2.342.562l-32.688.693a5.619,5.619,0,0,1-2.529-.534,5.732,5.732,0,0,1-3.344-5.217V656.57Z" transform="translate(-95.118 -203.564)"/><path class="d" d="M374.45,656.57v22.938a5.742,5.742,0,0,1-3.278,5.189,5.619,5.619,0,0,1-2.341.562l-32.688.693a5.619,5.619,0,0,1-2.529-.534,5.732,5.732,0,0,1-3.344-5.217V656.57Z" transform="translate(-95.244 -203.564)"/><rect class="d" width="44.18" height="29.503" transform="translate(637.77 453.006)"/><rect class="g" width="44.18" height="29.503" transform="translate(637.77 453.006)"/><rect class="d" width="44.18" height="29.503" transform="translate(635.897 453.006)"/><path class="g" d="M229.4,265.82v5.367l-17.8-.459V265.82Z" transform="translate(-13.412 -16.847)"/><path class="e" d="M421.2,276.213l-21.383,153.6a4.027,4.027,0,0,1-4.093,3.475l-171.213-4.44-3.25-.084a4.027,4.027,0,0,1-3.9-4.561l24.005-160.8a4.027,4.027,0,0,1,4.252-3.4l171.831,11.633a4.018,4.018,0,0,1,3.746,4.571Z" transform="translate(-88.086 -178.428)"/><path class="h" d="M174.7,99.16,156.6,240.9l157.351,4.992L333.3,109.144Z" transform="translate(-9.925 -6.283)"/><rect class="e" width="191.697" height="162.344" rx="5.33" transform="translate(360.223 90.685)"/><rect class="h" width="174.21" height="135.182" transform="translate(369.271 101.616)"/><path class="g" d="M740.726,262.82v3.55l-17.8.365V262.82Z" transform="translate(-45.822 -16.657)"/><path class="e" d="M893.725,421.4a2.885,2.885,0,0,1-2.81,3.072l-175.334,3.625a2.885,2.885,0,0,1-2.932-2.613L697.579,268.8a2.885,2.885,0,0,1,2.735-3.156l174-8.654,1.873-.094a2.875,2.875,0,0,1,3.016,2.623Z" transform="translate(-118.525 -178.231)"/><path class="h" d="M628.93,102.631,787.846,94.82l13.422,142.366-157.66,3.746Z" transform="translate(-39.864 -6.008)"/><path class="g" d="M905.687,421.4a2.885,2.885,0,0,1-2.81,3.072l-16.6-167.476,1.873-.094a2.875,2.875,0,0,1,3.016,2.623Z" transform="translate(-130.487 -178.231)"/><path class="g" d="M245.653,260,224.514,428.852l-3.25-.084a4.027,4.027,0,0,1-3.9-4.561l24.005-160.8A4.027,4.027,0,0,1,245.653,260Z" transform="translate(-88.086 -178.427)"/><rect class="g" width="17.796" height="15.997" transform="translate(198.188 286.991)"/><path class="g" d="M295.11,483.65V488.3l-44.18,1.18V483.65Z" transform="translate(-15.904 -30.654)"/><path class="e" d="M448.045,485.02V642.558a3.746,3.746,0,0,1-3.606,3.7l-179.5,4.777h-.047a3.746,3.746,0,0,1-3.7-3.7V485.02a3.747,3.747,0,0,1,3.7-3.7H444.345a3.746,3.746,0,0,1,3.7,3.7Z" transform="translate(-90.866 -192.456)"/><path class="g" d="M264.936,481.32V651.035h-.047a3.746,3.746,0,0,1-3.7-3.7V485.02a3.747,3.747,0,0,1,3.7-3.7Z" transform="translate(-90.866 -192.456)"/><path class="i" d="M194.6,319.15H360.849V458L194.6,461.75Z" transform="translate(-12.334 -20.227)"/><rect class="g" width="17.796" height="16.316" transform="translate(677.108 286.991)"/><path class="g" d="M723.11,483.65v6l-44.18-1.18V483.65Z" transform="translate(-43.033 -30.654)"/><path class="e" d="M855.042,485.02V647.335a3.746,3.746,0,0,1-3.746,3.7h0l-179.54-4.777a3.746,3.746,0,0,1-3.606-3.7V485.02a3.746,3.746,0,0,1,3.7-3.7H851.305a3.747,3.747,0,0,1,3.737,3.7Z" transform="translate(-116.661 -192.456)"/><path class="g" d="M867.436,485.02V647.335a3.746,3.746,0,0,1-3.746,3.7h0V481.32h0a3.746,3.746,0,0,1,3.746,3.7Z" transform="translate(-129.055 -192.456)"/><path class="i" d="M764.349,319.15H598.1V458l166.249,3.746Z" transform="translate(-37.91 -20.227)"/><path class="e" d="M650.545,485.02V642.558a3.746,3.746,0,0,1-3.606,3.7l-179.5,4.777h0a3.747,3.747,0,0,1-3.746-3.7V485.02a3.746,3.746,0,0,1,3.7-3.7H646.845A3.747,3.747,0,0,1,650.545,485.02Z" transform="translate(-103.701 -192.456)"/><path class="i" d="M397.1,319.15H563.349V458L397.1,461.75Z" transform="translate(-25.169 -20.227)"/><path class="g" d="M815.118,533.65v12.176l-142.291,1.311-1.517.028-54.08.5-1.293.019-16.438.141h-.487l-100.2.927-164.479,1.527h-.14l-41.82.393-.45.009-185.824,1.7V538.333l189.674-1.246h.45l38.392-.262h.178l265.137-1.751h.272l.159-.009h.44l4.486-.028h1.367l69.768-.468,4.121-.019.918-.009Z" transform="translate(-6.724 -33.823)"/><circle class="j" cx="48.076" cy="48.076" r="48.076" transform="translate(408.299 206.835)"/><path class="k" d="M383.74,701.187a1.162,1.162,0,0,1,.094-.328c.937-3.362,2.6-9.048,3.849-13.59.159-.562.309-1.115.45-1.639,1.377-5.123,4.056-17.121,5.545-24.6.525-2.632.937-4.683,1.021-5.713.187-1.583,3.007-8.355,6.2-16.138,2.239-5.47,4.683-11.445,6.472-16.484a57.485,57.485,0,0,0,2.744-9.226,4.776,4.776,0,0,0,0-1.995,13.759,13.759,0,0,1-.45-3.278h0c-.215-5.807,1.517-14.986,4.2-18.835,3.278-4.683,5.62-22.16,5.62-22.16s4.852.7,5.62-3.306a5.761,5.761,0,0,0,.094-1.311,6.939,6.939,0,0,0-.084-1.04c-.834-5.844,13.787-12.064,22.01-13.4a18.416,18.416,0,0,1,2.81-.262,25.516,25.516,0,0,0,5.854-1.349q1.311-.4,2.81-.937c3.447-1.161,7.568-2.7,11.942-4.383,16.447-6.378,36.359-14.986,36.359-14.986.141-.665.3-1.3.478-1.929a25.954,25.954,0,0,1,15.314-17.73h0v-1.873c0-3.231-.141-6.556-.281-9.872,0-.646-.056-1.293-.094-1.939v-1.058c0-.656-.066-1.311-.1-1.958l-.169-.131a15.367,15.367,0,0,1-3.653-3.934,14.3,14.3,0,0,1-1.33-2.81c-1.171-3.175-1.442-6.716-2.229-10.069l-.169-.693a78.674,78.674,0,0,0-3.746-9.909c-2.07-5.076-3.662-10.3-5.245-15.595q-1.442-4.8-2.913-9.628l-1.48-4.908c-.281-.937-.562-1.873-.777-2.81h0a12.427,12.427,0,0,1-.244-1.311h0a9.366,9.366,0,0,1,.225-4.318,30.067,30.067,0,0,1,1.236-2.81,7.373,7.373,0,0,0,.468-1.293h0a2.813,2.813,0,0,0,.075-.3,5.292,5.292,0,0,0,.1-1.012,17.292,17.292,0,0,0-.487-3.643.066.066,0,0,1,0-.047,2.394,2.394,0,0,0-.047-.253,23.876,23.876,0,0,1-.337-2.81,26.648,26.648,0,0,1,3.25-14.583l.178-.337a23.621,23.621,0,0,1,1.723-2.6h0a13.154,13.154,0,0,1,.937-1.143c-1.311,1.255-3.465.7-4.683-.646a3.382,3.382,0,0,1-.515-.7,3.571,3.571,0,0,1-.215-.421c-.047-.112-.084-.234-.122-.356-.656-2.295.487-4.739,1.986-6.6a17.316,17.316,0,0,1,5.376-4.4h0a3.609,3.609,0,0,1,.375-.2,16.034,16.034,0,0,1,2.473-.993h0a14.107,14.107,0,0,1,1.527-.412l-3.475-.318-1.4-.131a13.572,13.572,0,0,1,12.176-10.219h1.012a10.988,10.988,0,0,1,1.47.122,4.159,4.159,0,0,1-2.482-4.056,13.5,13.5,0,0,0,8.607,2.866h.356a28.118,28.118,0,0,1-.318-3.063h0a31.067,31.067,0,0,1,0-4.177,7.905,7.905,0,0,0,6.35,2.117l-1.948-2.716a8.888,8.888,0,0,0,6.144,1.92l.45-.047a6.555,6.555,0,0,0,1.115-.215h.084c-.178-.225-.337-.459-.5-.7l-.056-.112a9.063,9.063,0,0,1-.937-1.958,6.175,6.175,0,0,1-.225-.815h0a8.2,8.2,0,0,1,.422-5.1c3.025,2.529,6.341,5.985,10.3,3.372s4.093-7.409,10.3-6.922a9.553,9.553,0,0,1,7.877,5.732,6.322,6.322,0,0,1,7.184-1.639,6.416,6.416,0,0,1,3.634,6.453c2.576-.646,5.348-1.283,7.821-.309s4.065,4.13,2.66,6.238a1.34,1.34,0,0,1-.131.187c-1.152,1.489-3.7,2.3-3.428,4.177l.393.281,1.218.88q7.165,5.17,13.956,10.865c2.323,1.948,4.8,4.29,4.955,7.334a8.093,8.093,0,0,1-.225,2.22h0c-.15.731-.356,1.461-.515,2.192a18.274,18.274,0,0,0-.318,5.667h0c.066.553.15,1.1.253,1.648,1.433,7.24,7.221,13.216,7.793,20.606v.525a16.649,16.649,0,0,1-.066,2.37c-.431,4.5-2.51,8.814-4.2,13.113-.1.262-.206.525-.3.787-3.25,8.43-5.123,17.412-6.556,26.375a93.883,93.883,0,0,1-1.873,9.45,25.035,25.035,0,0,1-4.767,9.769,15.188,15.188,0,0,1-3.147,2.81,17.485,17.485,0,0,1-2.482,1.321v.056c.1.571.187,1.143.29,1.714.056.3.1.6.159.937h0a.13.13,0,0,0,0,.056c.787,4.43,1.686,8.767,2.632,12.888l.478,2.051c11.8,4.262,13.2,12.991,13.281,16.335a9.016,9.016,0,0,1,0,1.339s17.8.468,24.82,5.62a19.047,19.047,0,0,0,4.224,2.154,77.739,77.739,0,0,0,8.664,2.707c1.508.393,3.081.777,4.683,1.152,2.81.646,5.788,1.274,8.664,1.873,7.671,1.545,14.892,2.81,18.554,3.746,8.739,2.21,28.726,21.374,28.726,21.374s2.342,19.332,4.683,22.151,6.556,12.729,6.556,12.729l15.492,27.546,6.556,11.586h4.215c.581,0,1.723.824,3.007,1.967,1.115.993,2.351,2.229,3.437,3.353l1.8,1.92,1.124,1.246s6.809.169,8.654,5.554c5.545-.159,12.354.206,17.121,2.342a13.24,13.24,0,0,1,1.873,1.012,8.13,8.13,0,0,1,3.868,5.3,7.819,7.819,0,0,1,.169,1.349c0,.534,0,1.068,0,1.592-.337,7.09-4.955,12.991-9.2,16.962l.3.534s-.141.337-.412.937c-.075.178-.169.375-.272.6h0c-.553,1.18-1.433,2.95-2.585,5.02a59.3,59.3,0,0,1-8.963,12.335l-.272.281-54.08.5-.159-.187-10.49-12.513-5.217-6.219-.159-.2-.15,1.489-.506,4.964-1.218,12-.066.6v.159l-.141,1.386.1-1.386h-.272l-100.218.937-164.488,1.817v.787H426.1v-.787l-41.914.45Z" transform="translate(-98.634 -184.005)"/><path class="j" d="M612.195,543.1s-93.193,11.239-84.3,0c3.222-4.065,4.112-16.11,3.934-29.831-.056-4.168-.206-8.486-.421-12.785-1.03-20.606-3.512-40.743-3.512-40.743s81.486-38.4,72.119-7.961c-3.746,12.3-2.519,29.569.328,45.782.834,4.73,1.8,9.366,2.81,13.768A322.81,322.81,0,0,0,612.195,543.1Z" transform="translate(-107.733 -189.84)"/><path class="g" d="M612.195,547.769s-93.193,11.239-84.3,0c3.222-4.065,4.112-16.11,3.934-29.831,14.208-6.069,32.285-1.545,32.285-1.545,19.032-3.793,31.236-3.053,39.038-.393A322.81,322.81,0,0,0,612.195,547.769Z" transform="translate(-107.733 -194.513)"/><path class="c" d="M426.233,712.148v-.787l164.488-1.789,100.218-.937h.281l-.1,1.386.141-1.386h.178v-.159l1.283-12.6.487-4.767.15-1.489.131-1.246,5.788-19.3,5.788-19.276,4.87-16.232,7.437-24.8s-4.215-9.834-6.556-12.644-4.683-22.01-4.683-22.01-19.987-19.041-28.726-21.233c-3.662-.937-10.893-2.182-18.573-3.746-2.875-.581-5.826-1.2-8.664-1.873-1.6-.365-3.175-.749-4.683-1.133a82.325,82.325,0,0,1-8.664-2.679,19.385,19.385,0,0,1-4.215-2.145c-6.884-5.048-24.137-5.62-24.8-5.62h0a.393.393,0,0,1,0-.066v-.084a9.576,9.576,0,0,0,0-1.18,7.523,7.523,0,0,0-.084-1.311,1.183,1.183,0,0,0-.066-.468c-.047-.337-.1-.693-.187-1.068a4.668,4.668,0,0,0-.112-.5,16.121,16.121,0,0,0-1.171-3.269c-.066-.15-.15-.309-.225-.459a17.094,17.094,0,0,0-1.592-2.463c-.122-.159-.253-.328-.393-.487a18.332,18.332,0,0,0-2.548-2.473c-.253-.2-.515-.4-.787-.59a4.368,4.368,0,0,0-.478-.337l-.834-.543-.777-.45c-.684-.375-1.4-.74-2.192-1.086-.244-.112-.506-.215-.768-.318s-.674-.262-1.021-.393h-.056l-.7-.281c-.534-.178-1.077-.337-1.648-.5l-.871-.225-.937-.215-.937-.2c-.937-.187-1.939-.356-2.988-.487l-1.068-.131-1.1-.112-1.133-.094-1.611-.094-1.873-.066a116.8,116.8,0,0,0-24.588,2.615,67.686,67.686,0,0,0-17.092-1.576h-.815l-.937.056h-.6l-1.208.112a8.988,8.988,0,0,0-1.218.141c-.4.056-.824.1-1.227.169l-.618.1c-.609.1-1.227.215-1.873.347q-.309.056-.618.141c-.815.178-1.63.393-2.435.637-.4.112-.805.244-1.208.384-.206.056-.4.131-.6.206l-.6.215-.59.234-.7.281c-.356.15-.7.309-1.049.478-.2.084-.393.178-.581.281s-.384.187-.562.29a25.991,25.991,0,0,0-5.816,4.1l-.478.459-.468.478c-.159.159-.309.328-.459.5a22.3,22.3,0,0,0-1.7,2.107c-.15.2-.29.393-.431.6a24.993,24.993,0,0,0-1.611,2.735c-.122.225-.234.459-.347.684a30.628,30.628,0,0,0-1.873,4.917q-.262.937-.478,1.873s-19.828,8.748-36.275,15.08c-4.374,1.686-8.5,3.213-11.942,4.365-1,.337-1.939.646-2.81.937a25.013,25.013,0,0,1-5.854,1.349,18.409,18.409,0,0,0-2.81.262c-7.558,1.227-20.512,6.556-21.926,11.9a3.456,3.456,0,0,0-.094,1.311s0,.066,0,.1c.937,6.556-5.62,5.62-5.62,5.62s-2.342,17.327-5.62,22.01c-2.37,3.372-3.99,10.893-4.2,16.569h0a18.367,18.367,0,0,0,.412,5.273v.131c.375,1.255-.525,4.683-2.051,9.076-1.658,4.824-4.074,10.818-6.4,16.475-3.5,8.542-6.8,16.3-7.006,18-.084.759-.328,2.117-.665,3.868-1.367,7.137-4.4,20.727-5.9,26.225-1.115,4.1-2.735,9.722-3.849,13.581a1.315,1.315,0,0,1-.094.328l41.988-.412v.787h.131Z" transform="translate(-98.661 -194.638)"/><path class="g" d="M445.44,607.57s53.387,27.63,72.588,24.352Z" transform="translate(-102.544 -200.459)"/><path class="g" d="M561.44,595.57s51.982,16.859,69.31,19.2S561.44,595.57,561.44,595.57Z" transform="translate(-109.897 -199.698)"/><path class="g" d="M616.205,536.39c-27.162,5-78.3,3.924-100.405,3.166,8.1-29.035,47.608-19.163,47.608-19.163C612.309,510.633,616.055,530.883,616.205,536.39Z" transform="translate(-107.004 -194.767)"/><path class="c" d="M616.205,534.39c-27.162,5-78.3,3.924-100.405,3.166,8.1-29.035,47.608-19.163,47.608-19.163C612.309,508.633,616.055,528.883,616.205,534.39Z" transform="translate(-107.004 -194.64)"/><path class="j" d="M776.94,672.264s31.995-4.917,32.622,9.132-16.316,23.865-16.316,23.865Z" transform="translate(-123.556 -204.506)"/><path class="g" d="M600.383,497.558a44.038,44.038,0,0,1-4.215,1.63c-10.1,3.484-20.278,7-30.908,8.27s-21.786.15-31.058-5.151a26.942,26.942,0,0,1-2.81-1.826c-1.03-20.606-3.512-40.743-3.512-40.743s81.486-38.4,72.119-7.961C596.272,464.074,597.536,481.345,600.383,497.558Z" transform="translate(-107.77 -189.84)"/><path class="d" d="M549.693,364.017a8.87,8.87,0,0,1-7.793-1.639l1.948,2.707a7.933,7.933,0,0,1-6.35-2.107,31.923,31.923,0,0,0,.3,7.259,13.6,13.6,0,0,1-8.954-2.81,4.14,4.14,0,0,0,2.473,4.037,13.431,13.431,0,0,0-14.611,10.031l4.889.45a17.3,17.3,0,0,0-9.778,5.966c-1.5,1.873-2.641,4.271-1.986,6.556s3.821,3.746,5.545,2.117a26.169,26.169,0,0,0-5.713,21.345,13.552,13.552,0,0,1,.431,4.927c-.309,1.545-1.283,2.885-1.77,4.393-.937,2.735-.047,5.7.787,8.43L513.5,450.12c1.592,5.217,3.175,10.443,5.254,15.492a76.881,76.881,0,0,1,3.746,9.844c1.18,4.533,1.227,9.5,3.746,13.459a18.667,18.667,0,0,0,6.725,5.929c9.263,5.3,20.456,6.425,31.058,5.151s20.774-4.786,30.862-8.27a29.036,29.036,0,0,0,6.406-2.81c6.978-4.571,8.533-13.918,9.834-22.151,1.452-9.179,3.391-18.339,6.828-26.975,2.042-5.142,4.683-10.359,4.234-15.866-.571-7.315-6.36-13.244-7.793-20.437a17.8,17.8,0,0,1,.066-7.277,16.542,16.542,0,0,0,.74-4.4c-.159-3.016-2.632-5.339-4.955-7.278q-7.558-6.313-15.6-11.933c-.272-1.873,2.276-2.679,3.428-4.159,1.63-2.089-.056-5.4-2.529-6.378s-5.245-.337-7.821.309a6.172,6.172,0,0,0-10.818-4.786,9.554,9.554,0,0,0-7.886-5.695c-6.21-.487-6.332,4.262-10.3,6.875s-7.249-.834-10.3-3.344A8.692,8.692,0,0,0,549.693,364.017Z" transform="translate(-106.505 -184.25)"/><path class="c" d="M796.1,696.315s-.834,1.986-2.37,4.861a64.626,64.626,0,0,1-8.43,12.335l-.253.272h-1.517l-54.08.5h-1.293l-.159-.187-10.49-12.448-3.952-4.692-.159-.2-.337-.393-.187-.225-.244-.29-7.69-9.123,2.81-11.708,4.786-19.725.122-.478.937-3.746.665-2.81,2.229-9.16,7.643-31.517,13.581,7.025,14.321,25.289,7.69,13.581h4.215c.8,0,2.622,1.536,4.458,3.306.656.628,1.311,1.293,1.873,1.873,1.667,1.723,2.988,3.2,2.988,3.2s6.828.15,8.664,5.526a6.545,6.545,0,0,1,.234.8,37.754,37.754,0,0,0,2.37,6.144c1.208,2.632,2.726,5.62,4.262,8.607,2.857,5.479,5.76,10.7,6.828,12.588l.131.234Z" transform="translate(-118.993 -200.459)"/><path class="g" d="M698.153,656.432l-.094,1.339v.094l-.159,2.154-1.246,17.337-1.508,20.886-.431,5.882-.937,12.588v.159l-100.218.937-164.46,1.78v.787h-.131v-1.049l.422-13.45.805-26.281.693-22.282.066-2.22a9.863,9.863,0,0,1,10.7-9.525c4.421.375,10.162.834,17.028,1.321l2.81.206c39.647,2.754,112.918,6.313,186.855,1.873,1.555-.084,3.119-.178,4.683-.29,11.464-.721,22.919-1.648,34.261-2.81a9.863,9.863,0,0,1,10.865,10.518Z" transform="translate(-101.5 -202.865)"/><path class="d" d="M429.08,720.631v-.787l164.488-1.789,100.218-.937h.281v-.159L695,704.371l.4-5.62,1.536-21.177,1.208-16.765V660.4a9.945,9.945,0,0,0-.1-2.313.282.282,0,0,0,0-.094,9.733,9.733,0,0,0-1.873-4.346,9.872,9.872,0,0,0-8.823-3.747c-11.342,1.161-22.8,2.089-34.261,2.81-1.564.112-3.128.206-4.683.29-73.936,4.393-147.208.834-186.855-1.873l-2.81-.206c-6.865-.487-12.607-.937-17.028-1.321a9.872,9.872,0,0,0-10.528,7.989,10.3,10.3,0,0,0-.169,1.536l-.637,20.755-.871,26.291-.412,13.45v1.049Z" transform="translate(-101.507 -203.12)"/><path class="g" d="M698.443,663.73l-1.152,14.358-1.714,21.4-.431,5.357-.937,12-.056.6v.159h0l-.141,1.386.1-1.386h-.272l-100.218.937L429.11,720.32v-.262l.459-13.45.937-26.281.6-17.468a5.957,5.957,0,0,1,2.866-4.917,5.854,5.854,0,0,1,3.54-.843c1.967.159,4.383.346,7.2.553,4.58.337,10.228.731,16.8,1.143,12.176.768,27.452,1.592,44.958,2.267,48.7,1.873,114.454,2.5,176.908-2.969,2.81-.244,5.713-.515,8.551-.787a5.862,5.862,0,0,1,3.259.618,4.833,4.833,0,0,1,.806.506,5.75,5.75,0,0,1,1.873,2.3,3.34,3.34,0,0,1,.234.571A5.881,5.881,0,0,1,698.443,663.73Z" transform="translate(-101.509 -203.597)"/><path class="g" d="M374.45,677.87v2.988a5.742,5.742,0,0,1-3.278,5.189l-37.558.721a5.732,5.732,0,0,1-3.344-5.217v-2.81Z" transform="translate(-95.244 -204.915)"/><path class="d" d="M295.288,515.02l-48.938.937v-8.12l48.938-.937Z" transform="translate(-15.614 -32.127)"/><path class="g" d="M295.288,515.02l-48.938.937v-8.12l48.938-.937Z" transform="translate(-15.614 -32.127)"/><path class="d" d="M297.288,515.02l-48.938.937v-8.12l48.938-.937Z" transform="translate(-15.741 -32.127)"/><g class="b" transform="translate(401.794 172.63)"><path d="M552.8,361.285a9.133,9.133,0,0,1-1.77-4.065,8.889,8.889,0,0,0,.393,4.308A8.426,8.426,0,0,0,552.8,361.285Z" transform="translate(-511.025 -357.22)"/><path d="M540.207,367.965a32.916,32.916,0,0,1-.346-3.465c0,1.152,0,2.313,0,3.475Z" transform="translate(-510.323 -357.681)"/><path d="M621.726,401.038a17.188,17.188,0,0,1,.337-2.482,16.856,16.856,0,0,0,.749-4.393,5.779,5.779,0,0,0-.15-.993c-.159.862-.412,1.723-.6,2.576a17.926,17.926,0,0,0-.337,5.292Z" transform="translate(-515.508 -359.499)"/><path d="M600.929,370.349l1.021.74a18.465,18.465,0,0,0,2.407-2.079,3.437,3.437,0,0,0,.356-3.409,2.808,2.808,0,0,1-.356.6C603.2,367.679,600.657,368.494,600.929,370.349Z" transform="translate(-514.193 -357.751)"/><path d="M518.7,380.29a11.533,11.533,0,0,0-.815,2.135,17.009,17.009,0,0,1,4.683-1.77Z" transform="translate(-508.931 -358.682)"/><path d="M532.43,369.332a13.892,13.892,0,0,1-1.761-1.152,3.978,3.978,0,0,0,.084,1.105,11.111,11.111,0,0,1,1.677.047Z" transform="translate(-509.74 -357.915)"/><path d="M622.587,428.33c-.384,4.543-2.5,8.917-4.215,13.225-3.437,8.636-5.376,17.8-6.828,26.984-1.3,8.233-2.81,17.58-9.834,22.142a28.1,28.1,0,0,1-6.4,2.81c-10.1,3.494-20.278,7-30.908,8.27s-21.786.159-31.058-5.142a18.733,18.733,0,0,1-6.725-5.929c-2.5-3.962-2.548-8.926-3.746-13.459a77,77,0,0,0-3.747-9.853c-2.07-5.039-3.662-10.3-5.245-15.482q-2.2-7.221-4.393-14.452a26.984,26.984,0,0,1-1.068-4.449c-.365,2.4.346,4.908,1.068,7.259q2.192,7.24,4.393,14.452c1.583,5.217,3.175,10.443,5.245,15.482a76.99,76.99,0,0,1,3.746,9.853c1.18,4.533,1.227,9.5,3.746,13.459a18.732,18.732,0,0,0,6.725,5.929c9.273,5.3,20.456,6.416,31.058,5.142s20.774-4.777,30.908-8.27a28.094,28.094,0,0,0,6.4-2.81c6.978-4.561,8.533-13.909,9.834-22.142,1.452-9.188,3.391-18.348,6.828-26.984,2.042-5.133,4.683-10.35,4.234-15.866C622.606,428.442,622.587,428.386,622.587,428.33Z" transform="translate(-508.324 -361.727)"/><path d="M510.574,423.91v-.1a13.111,13.111,0,0,0-.431-4.917,24.906,24.906,0,0,1-.365-3.11,25.617,25.617,0,0,0,.365,5.919C510.293,422.43,510.461,423.17,510.574,423.91Z" transform="translate(-508.414 -360.932)"/><path d="M513.458,399.625a25.98,25.98,0,0,1,2.445-3.437c-1.714,1.639-4.88.178-5.545-2.1a5.461,5.461,0,0,0,0,2.81,4.112,4.112,0,0,0,3.1,2.726Z" transform="translate(-508.442 -359.557)"/></g><path class="g" d="M763.351,656.57s2.969,10.771,0,20.137S763.351,656.57,763.351,656.57Z" transform="translate(-122.611 -203.564)"/><path class="g" d="M776.77,668.3s1.246,13.675-1.564,16.1S776.77,668.3,776.77,668.3Z" transform="translate(-123.387 -204.308)"/><line class="l" y1="0.937" x2="95.169" transform="translate(186.378 320.194)"/><line class="l" y1="0.927" x2="95.169" transform="translate(186.378 331.883)"/><line class="l" y1="0.937" x2="95.169" transform="translate(186.378 343.562)"/></g></svg>